PathFileType  4	(X/Y/Z) C:\Users\antoi\Documents\MyRepositories\mobilecap\ResultsAnalysis
DataRate	CameraRate	NumFrames	NumMarkers	Units	OrigDataRate	OrigDataStartFrame	OrigNumFrames
100.0	100.0	7	51	mm	100.0	119	135
Frame#	Time	r_knee			r_shank_antsup			r_ankle			r_calc			r_5meta			r_toe			L_knee			L_shank_antsup			L_ankle			L_calc			L_5meta			L_toe			r_sh2			r_sh3			r_sh4			L_sh2			L_sh3			r_thigh1			r_thigh2			r_thigh3			r_thigh4			r_thigh5			L_thigh1			L_thigh2			L_thigh3			L_thigh4			r.ASIS			r.PSIS			L.ASIS			L.PSIS			C7			R_Shoulder			L_Shoulder			R_Sternum			L_Sternum			R_humerus			R_elbow_med			R_elbow_lat			R_forearm			R_wrist_radius			R_wrist_ulna			L_humerus			L_elbow_med			L_elbow_lat			L_forearm			L_wrist_radius			L_wrist_ulna			R_HJC			L_HJC			R_HJC_reg			L_HJC_reg			
		X1	Y1	Z1	X2	Y2	Z2	X3	Y3	Z3	X4	Y4	Z4	X5	Y5	Z5	X6	Y6	Z6	X7	Y7	Z7	X8	Y8	Z8	X9	Y9	Z9	X10	Y10	Z10	X11	Y11	Z11	X12	Y12	Z12	X13	Y13	Z13	X14	Y14	Z14	X15	Y15	Z15	X16	Y16	Z16	X17	Y17	Z17	X18	Y18	Z18	X19	Y19	Z19	X20	Y20	Z20	X21	Y21	Z21	X22	Y22	Z22	X23	Y23	Z23	X24	Y24	Z24	X25	Y25	Z25	X26	Y26	Z26	X27	Y27	Z27	X28	Y28	Z28	X29	Y29	Z29	X30	Y30	Z30	X31	Y31	Z31	X32	Y32	Z32	X33	Y33	Z33	X34	Y34	Z34	X35	Y35	Z35	X36	Y36	Z36	X37	Y37	Z37	X38	Y38	Z38	X39	Y39	Z39	X40	Y40	Z40	X41	Y41	Z41	X42	Y42	Z42	X43	Y43	Z43	X44	Y44	Z44	X45	Y45	Z45	X46	Y46	Z46	X47	Y47	Z47	X48	Y48	Z48	X49	Y49	Z49	X50	Y50	Z50	X51	Y51	Z51	

119	1.18000000	1434.30498	489.89417	-51.94516	1484.39936	431.00190	-68.23631	1475.79528	91.52341	-107.79381	1420.97783	64.18779	-163.14503	1575.65237	42.81183	-61.80326	1633.16694	76.21736	-105.64437	1174.72353	477.27247	-313.21501	1150.48861	379.26703	-319.45749	924.74434	163.36504	-275.37539	850.67265	159.87457	-221.66585	973.33395	49.07999	-318.24854	1031.46401	55.31935	-271.39559	1479.20600	314.61002	-57.00125	1402.37452	427.01217	-50.87088	1404.10775	314.16147	-61.36814	1082.86942	438.65471	-314.71326	1010.79117	339.66046	-313.10795	1388.86285	809.73259	-12.23293	1423.48140	700.97758	-22.37896	1378.18042	662.76251	7.32435	1282.78575	772.91746	7.85843	1322.38944	664.64789	-5.18659	1268.29163	728.44346	-369.09602	1247.80425	594.63590	-341.72156	1164.17968	749.02655	-322.29813	1148.83558	611.06541	-300.27303	1371.07077	950.08300	-59.54482	1180.20689	988.10590	-129.38653	1366.69117	916.63582	-308.51816	1171.36285	988.23399	-230.03915	1169.29828	1384.28665	-222.48944	1251.80800	1362.46406	-31.44150	1275.42477	1358.77049	-388.42861	1309.17592	1370.33200	-184.44722	1317.92188	1370.70787	-225.74568	1239.21554	1225.66751	29.20717	1176.58631	1020.75908	-33.24977	1174.03482	1038.64071	37.82639	1206.48831	910.53664	81.67888	1200.34402	773.28117	104.08294	1170.02922	778.49999	116.38167	1335.76986	1258.27341	-442.84427	1401.76445	1027.47012	-392.90449	1412.41733	1061.80717	-466.33291	1525.70296	1062.64255	-445.89058	1676.58501	1021.47546	-431.72785	1669.56445	998.38265	-457.32825	1290.95462	871.41807	-70.89486	1281.50066	852.25175	-276.25893	1302.75727	860.46430	-87.75457	1288.24455	860.67614	-252.94143	
120	1.19000000	1445.34892	490.31000	-51.34406	1494.30529	430.09415	-68.54236	1477.48682	91.45018	-108.57117	1421.75378	64.50223	-163.64413	1576.01483	41.98121	-61.90412	1634.31277	73.97143	-106.06386	1195.28759	476.19913	-314.95554	1168.34845	379.07905	-321.58465	935.48689	171.21587	-277.65185	862.63322	173.19900	-223.65655	976.19773	52.31768	-318.55695	1034.83560	55.40126	-272.15736	1487.20865	313.77863	-57.20375	1412.73643	427.77476	-49.38338	1411.90289	314.84013	-60.08211	1102.89195	440.67383	-315.89786	1027.29422	344.36726	-314.57364	1402.07910	810.82601	-11.56700	1436.04667	701.86174	-21.87793	1390.90666	663.92702	8.37308	1296.06098	774.53712	9.67239	1334.80074	665.78555	-3.52545	1284.41793	728.98021	-367.91354	1266.60724	594.45534	-342.13972	1180.05810	747.20695	-320.54052	1167.59762	608.70497	-300.11654	1384.90274	951.88777	-58.56161	1193.71206	989.07902	-127.70562	1380.13537	918.16649	-307.21012	1184.49314	988.68699	-228.31934	1181.73079	1385.20562	-220.61463	1265.46543	1363.43191	-29.98324	1287.17975	1359.77372	-386.99037	1321.96607	1371.36756	-183.24444	1330.42704	1371.74262	-224.53374	1253.43209	1226.61828	30.67726	1191.10165	1021.55966	-31.46830	1188.76043	1039.41274	39.64803	1221.90466	911.36508	83.23828	1216.05052	774.01145	105.49760	1186.09450	779.27984	118.20964	1346.49655	1258.66493	-441.70418	1409.42833	1026.85444	-391.72549	1420.37265	1061.11961	-465.37576	1533.54090	1061.32116	-443.95613	1683.99925	1019.42316	-428.09612	1677.32234	996.71927	-454.30324	1305.21253	872.87001	-69.39233	1295.25887	853.34916	-274.70225	1316.93409	862.52374	-86.09760	1301.82269	861.88337	-251.04459	
121	1.20000000	1455.64218	490.59762	-50.80618	1503.63161	429.20043	-68.90646	1478.81348	91.48782	-109.36633	1422.17589	64.66190	-163.98894	1576.25159	41.52890	-62.07932	1635.09570	72.38032	-106.59318	1216.95608	474.93949	-317.11774	1187.41609	378.94461	-324.10112	947.78355	179.32763	-280.31300	876.79480	187.31166	-225.96509	979.67588	56.31903	-318.89165	1038.53986	55.87692	-273.00416	1494.60798	312.98694	-57.50050	1422.55375	428.62763	-48.03467	1419.15107	315.57859	-59.02417	1124.20852	442.69619	-317.43324	1045.16042	349.12625	-316.27177	1415.02238	811.66873	-10.44350	1448.04095	702.41090	-20.86280	1402.67471	664.88295	9.44036	1308.79383	776.17979	11.23343	1346.31101	666.70877	-2.12250	1300.97566	729.55942	-366.95183	1286.16128	594.30342	-342.89209	1196.38921	745.09073	-319.02981	1187.08962	606.07240	-300.40918	1398.57113	953.49099	-57.44903	1207.08580	990.07568	-125.93911	1393.46979	919.98311	-305.85508	1197.49504	989.19342	-226.51696	1194.06174	1386.24476	-218.62442	1279.22908	1364.59193	-28.50197	1298.62629	1360.79506	-385.58273	1334.64775	1372.50848	-182.08831	1342.78844	1372.86340	-223.38156	1267.87417	1227.74642	32.22043	1205.73321	1022.57343	-29.53435	1203.72979	1040.34651	41.62727	1237.77523	912.37150	84.87573	1232.49353	774.95999	106.93817	1202.71549	780.13316	120.08254	1356.78006	1259.02825	-440.64503	1416.48033	1026.21642	-390.60874	1427.80025	1060.34284	-464.43703	1540.87726	1059.68970	-442.19514	1690.81382	1016.70287	-424.68335	1684.33244	994.36667	-451.40396	1319.29413	874.17655	-67.95268	1308.91489	854.65047	-273.24078	1330.89404	864.67544	-84.36606	1315.18941	863.23301	-249.07998	
122	1.21000000	1465.05273	490.73177	-50.25116	1512.16793	428.25685	-69.04297	1479.82046	91.57572	-110.10792	1422.35603	64.72139	-164.20170	1576.39401	41.31621	-62.23847	1635.59088	71.30336	-107.09201	1239.54744	473.52274	-319.55484	1207.58826	378.88175	-326.88159	961.63974	187.63274	-283.26831	893.16488	201.92419	-228.54999	984.00126	61.18665	-319.26639	1042.78857	56.94681	-273.97458	1501.13345	312.17567	-57.72072	1431.50129	429.46897	-46.91277	1425.60966	316.31042	-58.31555	1146.68231	444.70560	-319.22124	1064.32649	353.89543	-318.10788	1427.68009	812.26146	-8.87703	1459.42535	702.62687	-19.35571	1413.43089	665.66222	10.53644	1320.97270	777.87422	12.56009	1356.86705	667.47104	-1.01318	1317.80527	730.12478	-366.27163	1306.25716	594.17848	-343.93897	1213.08811	742.69643	-317.77737	1207.10847	603.22208	-301.11782	1412.03731	954.92270	-56.21154	1220.29835	991.10288	-124.19939	1406.62281	921.97147	-304.47166	1210.34715	989.73430	-224.73761	1206.32682	1387.36277	-216.53625	1293.05514	1365.90933	-27.01248	1309.76948	1361.81680	-384.21230	1347.21360	1373.72395	-180.97747	1355.00974	1374.04495	-222.29188	1282.53404	1229.01809	33.82775	1220.44997	1023.77247	-27.44632	1218.93479	1041.40804	43.76867	1254.09689	913.53672	86.59816	1249.69776	776.13386	108.45120	1219.89466	781.06276	122.01251	1366.61228	1259.34339	-439.65843	1422.92012	1025.54729	-389.54276	1434.71980	1059.49011	-463.49956	1547.72913	1057.74200	-440.60762	1697.06470	1013.34167	-421.59614	1690.58631	991.31661	-448.67185	1333.12391	875.37304	-66.57968	1322.41619	856.07351	-271.87075	1344.57888	866.89201	-82.54765	1328.29679	864.65432	-247.05758	
123	1.22000000	1473.47935	490.69950	-49.61081	1519.77441	427.21277	-68.72156	1480.56809	91.65805	-110.74175	1422.40209	64.73188	-164.31266	1576.46914	41.23130	-62.31337	1635.88430	70.59564	-107.45917	1262.84280	472.02572	-322.12478	1228.74055	378.91731	-329.78114	976.98776	196.05015	-286.35541	911.56227	216.64567	-231.28628	989.51375	66.99546	-319.72985	1047.96130	58.83197	-275.11579	1506.61657	311.29966	-57.71333	1439.35041	430.18642	-46.03670	1431.11686	316.97477	-57.97530	1170.14500	446.68934	-321.15664	1084.68756	358.64794	-319.98657	1439.98475	812.60918	-6.91951	1470.15300	702.53182	-17.43144	1423.17054	666.28350	11.65869	1332.57918	779.61512	13.68416	1366.48112	668.14869	-0.20581	1334.72886	730.64190	-365.90462	1326.66648	594.09561	-345.21944	1230.02752	740.07206	-316.76168	1227.45605	600.23180	-302.15355	1425.27378	956.23858	-54.86829	1233.32865	992.15860	-122.59664	1419.54653	923.99763	-303.08071	1223.03534	990.28691	-223.08497	1218.55567	1388.51471	-214.37083	1306.90088	1367.33999	-25.53122	1320.62294	1362.82808	-382.87888	1359.66982	1374.98198	-179.91037	1367.10222	1375.26251	-221.26185	1297.38887	1230.39814	35.48373	1235.22971	1025.11161	-25.20298	1234.36749	1042.55608	46.07297	1270.86367	914.83507	88.41025	1267.64812	777.52547	110.08495	1237.65395	782.05724	124.01610	1376.00016	1259.59536	-438.73422	1428.77382	1024.84122	-388.49859	1441.13730	1058.56692	-462.54855	1554.10005	1055.46324	-439.18816	1702.76047	1009.34239	-418.93940	1696.08678	987.55803	-446.17645	1346.64821	876.50941	-65.26894	1335.72745	857.52233	-270.57664	1357.96185	869.13142	-80.64466	1341.12639	866.07054	-244.99756	
124	1.23000000	1480.88583	490.50939	-48.84496	1526.43015	426.05707	-67.85338	1481.12362	91.69756	-111.24331	1422.39755	64.73266	-164.34967	1576.50030	41.19558	-62.27958	1636.05764	70.12907	-107.65829	1286.61060	470.57304	-324.71763	1250.74216	379.08543	-332.65850	993.69393	204.49535	-289.36377	931.61083	231.00918	-233.96842	996.65703	73.75267	-320.36717	1054.59494	61.73340	-276.47953	1511.05659	310.35008	-57.40133	1446.05597	430.70441	-45.35314	1435.66028	317.53816	-57.91717	1194.41434	448.64762	-323.15732	1106.10658	363.36465	-321.83266	1451.84331	812.72659	-4.65233	1480.19588	702.17065	-15.18731	1431.95966	666.75508	12.80371	1343.60148	781.37494	14.64266	1375.25606	668.83845	0.34382	1351.57056	731.11743	-365.85083	1347.16733	594.09673	-346.67407	1247.05569	737.29651	-315.93041	1247.96672	597.20808	-303.37877	1438.25928	957.49805	-53.44693	1246.15390	993.23306	-121.21635	1432.22626	925.92655	-301.70052	1235.54981	990.82969	-221.64383	1230.75798	1389.66200	-212.14942	1320.73202	1368.83473	-24.07424	1331.20626	1363.82328	-381.57804	1372.03068	1376.25336	-178.88569	1379.07983	1376.49354	-220.28615	1312.40459	1231.84988	37.16747	1250.06859	1026.52777	-22.80523	1250.02640	1043.74454	48.53358	1288.06289	916.23383	90.31307	1286.30068	779.12114	111.88175	1256.02585	783.09335	126.10829	1384.96207	1259.77138	-437.85724	1434.09160	1024.09843	-387.43053	1447.04676	1057.56518	-461.56488	1559.98332	1052.83076	-437.92481	1707.87549	1004.67645	-416.78573	1700.84718	983.07592	-443.99939	1359.83043	877.63344	-64.00908	1348.82887	858.90259	-269.33541	1371.03356	871.34018	-78.67673	1353.68850	867.40808	-242.93160	
125	1.24000000	1487.33409	490.19429	-47.94942	1532.24296	424.82521	-66.51985	1481.54936	91.68280	-111.61985	1422.39524	64.74783	-164.33516	1576.50544	41.16156	-62.15201	1636.17365	69.80490	-107.70690	1310.63553	469.32627	-327.26349	1273.46517	379.42839	-335.39042	1011.59255	212.89048	-292.07746	952.80056	244.52622	-236.34562	1005.93715	81.36425	-321.28594	1063.31039	65.77652	-278.11438	1514.62681	309.35826	-56.80337	1451.77155	431.01136	-44.76105	1439.39160	317.99970	-57.98204	1219.30810	450.60256	-325.17704	1128.43019	368.03036	-323.60549	1463.17815	812.64247	-2.17797	1489.57429	701.61017	-12.72225	1439.94277	667.08329	13.97135	1354.05204	783.12108	15.47070	1383.38858	669.65046	0.73764	1368.17636	731.60679	-366.07955	1367.56975	594.25621	-348.25871	1264.02505	734.47756	-315.20702	1268.52153	594.28646	-304.62447	1450.97718	958.74803	-51.97749	1258.74419	994.31492	-120.10525	1444.67594	927.64295	-300.34535	1247.88277	991.34996	-220.46810	1242.92194	1390.78338	-209.89345	1334.52671	1370.34543	-22.65550	1341.54364	1364.80101	-380.30612	1384.31143	1377.51574	-177.90347	1390.95525	1377.71989	-219.36104	1327.54492	1233.33619	38.85454	1264.98742	1027.94288	-20.25842	1265.91830	1044.92762	51.13487	1305.67421	917.69613	92.30168	1305.60267	780.90551	113.86617	1275.04355	784.14911	128.29526	1393.52361	1259.85978	-437.00642	1438.93643	1023.32755	-386.27958	1452.43773	1056.46797	-460.51765	1565.36872	1049.81995	-436.79843	1712.35925	999.29519	-415.15482	1704.88423	977.85575	-442.20893	1372.64627	878.78041	-62.78537	1361.70919	860.13827	-268.12269	1383.78791	873.46138	-76.67969	1366.01358	868.60727	-240.90237	
